<svg xmlns="http://www.w3.org/2000/svg" viewBox="0 -42.1 240.39 58.63" width="240.39" height="58.63"><path d="M19.74 -34.216 8.092 -2.7720000000000002 12.040000000000001 -1.4000000000000001 11.620000000000001 0.0H0.0L0.42000000000000015 -1.4000000000000001L5.068 -2.828L17.024 -34.776L12.908000000000001 -36.484L13.328000000000001 -37.856H24.444L27.131999999999998 -4.312L25.144 -4.0040000000000004L48.636 -37.856H51.436L51.352 -36.988L25.227999999999998 0.364H21.896L18.983999999999998 -33.88ZM49.504 -37.856H59.64L59.22 -36.484L54.516 -34.972L47.012 -2.688L50.876 -1.4000000000000001L50.456 0.0H36.204L36.624 -1.4000000000000001L41.188 -2.7720000000000002Z M70.392 -1.764 73.52799999999999 -11.06H74.00399999999999Q71.73599999999999 -7.5600000000000005 69.916 -5.292Q68.096 -3.024 66.598 -1.75Q65.1 -0.47600000000000003 63.797999999999995 0.04200000000000001Q62.495999999999995 0.56 61.263999999999996 0.56Q59.583999999999996 0.56 58.324 -0.07Q57.064 -0.7000000000000001 56.349999999999994 -1.9880000000000002Q55.635999999999996 -3.2760000000000002 55.635999999999996 -5.32Q55.635999999999996 -7.588 56.489999999999995 -10.262Q57.343999999999994 -12.936 58.87 -15.540000000000001Q60.396 -18.144000000000002 62.44 -20.3Q64.484 -22.456 66.91999999999999 -23.758000000000003Q69.356 -25.060000000000002 71.988 -25.060000000000002Q73.92 -25.060000000000002 75.208 -24.262Q76.496 -23.464000000000002 77.448 -21.812L76.384 -20.16Q75.99199999999999 -21.14 75.124 -21.770000000000003Q74.256 -22.400000000000002 72.912 -22.400000000000002Q71.008 -22.400000000000002 69.258 -21.182000000000002Q67.508 -19.964000000000002 66.024 -18.004Q64.53999999999999 -16.044 63.44799999999999 -13.79Q62.355999999999995 -11.536 61.739999999999995 -9.45Q61.123999999999995 -7.364 61.123999999999995 -5.88Q61.123999999999995 -4.648 61.782 -4.045999999999999Q62.44 -3.444 63.559999999999995 -3.444Q64.568 -3.444 66.00999999999999 -4.311999999999999Q67.452 -5.18 68.99199999999999 -6.7059999999999995Q70.532 -8.232 71.876 -10.276Q73.22 -12.32 74.032 -14.644L77.056 -23.38L80.388 -24.78H82.684L75.208 -2.016L74.424 -3.528Q75.488 -3.416 76.776 -3.7800000000000002Q78.064 -4.144 79.464 -4.9559999999999995Q80.864 -5.768 82.292 -7.0280000000000005L83.244 -5.88Q79.96799999999999 -2.2960000000000003 77.448 -0.8400000000000001Q74.928 0.616 72.828 0.616Q71.232 0.616 70.602 0.014000000000000012Q69.972 -0.588 70.392 -1.764Z M93.072 -21.168Q92.988 -21.168 92.89 -21.168Q92.792 -21.168 92.68 -21.168Q91.53200000000001 -21.168 90.524 -20.79Q89.516 -20.412 88.55000000000001 -19.432000000000002Q87.584 -18.452 86.52000000000001 -16.604L85.512 -17.024Q86.632 -20.244 88.07400000000001 -22.064Q89.516 -23.884 91.25200000000001 -24.626Q92.988 -25.368000000000002 94.89200000000001 -25.368000000000002Q95.56400000000001 -25.368000000000002 96.15200000000002 -25.312Q96.74000000000001 -25.256 97.328 -25.144Q97.91600000000001 -25.032 98.53200000000001 -24.892L95.11600000000001 -13.692L95.144 -13.832Q97.16000000000001 -17.976 99.02200000000002 -20.524Q100.88400000000001 -23.072 102.70400000000001 -24.234Q104.524 -25.396 106.34400000000001 -25.396Q108.164 -25.396 109.03200000000001 -24.5Q109.9 -23.604 109.9 -22.232Q109.9 -21.084 109.34 -20.23Q108.78 -19.376 107.926 -18.9Q107.072 -18.424 106.176 -18.424Q105.924 -18.424 105.602 -18.704Q105.28 -18.984 104.86000000000001 -19.544Q104.412 -20.132 104.006 -20.454Q103.60000000000001 -20.776 103.152 -20.776Q102.39600000000002 -20.776 101.47200000000001 -20.118000000000002Q100.548 -19.46 99.554 -18.228Q98.56 -16.996 97.566 -15.274Q96.572 -13.552 95.648 -11.437999999999999Q94.724 -9.324 93.99600000000001 -6.916L91.86800000000001 0.0H86.66000000000001Z M110.79600000000002 -14.364 109.22800000000001 -14.56Q109.90000000000002 -17.696 110.72600000000003 -19.796Q111.55200000000002 -21.896 112.53200000000001 -23.114Q113.51200000000001 -24.332 114.674 -24.864Q115.83600000000001 -25.396 117.18 -25.396Q117.936 -25.396 118.46800000000002 -25.060000000000002Q119.00000000000001 -24.724 119.44800000000001 -23.884Q119.89600000000002 -23.044 120.28800000000001 -21.532Q120.73600000000002 -19.992 121.26800000000001 -17.108Q121.80000000000001 -14.224 122.48600000000002 -9.702Q123.17200000000001 -5.18 124.01200000000001 1.26L119.67200000000001 5.432Q119.08400000000002 0.98 118.58000000000001 -2.4080000000000004Q118.07600000000002 -5.796 117.67000000000002 -8.344Q117.26400000000001 -10.892 116.92800000000001 -12.809999999999999Q116.59200000000001 -14.728 116.28400000000002 -16.212Q115.89200000000001 -18.228 115.64000000000001 -19.166Q115.38800000000002 -20.104 115.19200000000001 -20.384Q114.99600000000001 -20.664 114.71600000000001 -20.664Q114.12800000000001 -20.664 113.47000000000001 -20.090000000000003Q112.81200000000001 -19.516000000000002 112.126 -18.144000000000002Q111.44000000000001 -16.772000000000002 110.79600000000002 -14.364ZM121.21200000000002 1.624 122.24800000000002 0.84Q124.32000000000002 -2.324 125.76200000000001 -5.236Q127.20400000000001 -8.148 128.114 -11.116Q129.024 -14.084 129.44400000000002 -17.43Q129.864 -20.776 129.89200000000002 -24.808Q130.816 -25.116 131.698 -25.228Q132.58 -25.34 133.42000000000002 -25.312Q134.26000000000002 -25.312 134.68 -24.990000000000002Q135.10000000000002 -24.668 135.072 -23.94Q135.01600000000002 -22.316 134.63800000000003 -20.426000000000002Q134.26000000000002 -18.536 133.53200000000004 -16.352Q132.80400000000003 -14.168000000000001 131.69800000000004 -11.676000000000002Q130.592 -9.184000000000001 129.05200000000002 -6.3420000000000005Q127.51200000000001 -3.5 125.52400000000002 -0.252Q122.16400000000002 5.152 119.26600000000002 8.4Q116.36800000000001 11.648 113.75000000000001 13.09Q111.13200000000002 14.532 108.58400000000002 14.532Q106.28800000000001 14.532 105.28000000000002 13.496Q104.27200000000002 12.46 104.27200000000002 10.864Q104.27200000000002 9.52 105.09800000000001 8.652Q105.92400000000002 7.784 107.04400000000001 7.784Q107.29600000000002 7.784 107.67400000000002 8.078Q108.05200000000002 8.372 108.80800000000002 9.184000000000001Q109.59200000000001 9.968 110.26400000000001 10.332Q110.936 10.696 111.49600000000001 10.696Q112.61600000000001 10.696 114.22600000000001 9.604Q115.83600000000001 8.512 117.656 6.482Q119.47600000000001 4.452 121.21200000000002 1.624Z M146.524 -34.972Q146.02 -35.42 145.44600000000003 -35.84Q144.872 -36.26 144.2 -36.652Q143.528 -37.044000000000004 142.744 -37.38L143.052 -38.472L152.43200000000002 -40.096000000000004H153.272L141.624 -2.24L140.89600000000002 -3.556Q142.044 -3.444 143.36 -3.78Q144.676 -4.116 146.076 -4.9Q147.476 -5.684 148.904 -6.916L149.856 -5.74Q147.672 -3.332 145.75400000000002 -1.932Q143.836 -0.532 142.18400000000003 0.04199999999999998Q140.532 0.616 139.02 0.616Q137.34 0.616 136.654 0.04199999999999998Q135.968 -0.532 136.416 -1.96Z M166.23600000000002 -1.764 169.372 -11.06H169.848Q167.58 -7.5600000000000005 165.76000000000002 -5.292Q163.94000000000003 -3.024 162.442 -1.75Q160.94400000000002 -0.47600000000000003 159.642 0.04200000000000001Q158.34 0.56 157.108 0.56Q155.42800000000003 0.56 154.168 -0.07Q152.90800000000002 -0.7000000000000001 152.19400000000002 -1.9880000000000002Q151.48000000000002 -3.2760000000000002 151.48000000000002 -5.32Q151.48000000000002 -7.588 152.334 -10.262Q153.18800000000002 -12.936 154.714 -15.540000000000001Q156.24 -18.144000000000002 158.284 -20.3Q160.328 -22.456 162.764 -23.758000000000003Q165.20000000000002 -25.060000000000002 167.83200000000002 -25.060000000000002Q169.764 -25.060000000000002 171.05200000000002 -24.262Q172.34 -23.464000000000002 173.292 -21.812L172.228 -20.16Q171.836 -21.14 170.96800000000002 -21.770000000000003Q170.10000000000002 -22.400000000000002 168.75600000000003 -22.400000000000002Q166.852 -22.400000000000002 165.102 -21.182000000000002Q163.352 -19.964000000000002 161.868 -18.004Q160.38400000000001 -16.044 159.29200000000003 -13.79Q158.20000000000002 -11.536 157.584 -9.45Q156.96800000000002 -7.364 156.96800000000002 -5.88Q156.96800000000002 -4.648 157.62600000000003 -4.045999999999999Q158.28400000000002 -3.444 159.40400000000002 -3.444Q160.412 -3.444 161.854 -4.311999999999999Q163.29600000000002 -5.18 164.836 -6.7059999999999995Q166.376 -8.232 167.72000000000003 -10.276Q169.06400000000002 -12.32 169.876 -14.644L172.9 -23.38L176.23200000000003 -24.78H178.52800000000002L171.05200000000002 -2.016L170.26800000000003 -3.528Q171.33200000000002 -3.416 172.62 -3.7800000000000002Q173.90800000000002 -4.144 175.30800000000002 -4.9559999999999995Q176.70800000000003 -5.768 178.13600000000002 -7.0280000000000005L179.08800000000002 -5.88Q175.812 -2.2960000000000003 173.29200000000003 -0.8400000000000001Q170.77200000000002 0.616 168.67200000000003 0.616Q167.07600000000002 0.616 166.44600000000003 0.014000000000000012Q165.816 -0.588 166.23600000000002 -1.764Z M182.364 -16.604 181.35600000000002 -17.024Q182.47600000000003 -20.244 183.918 -22.064Q185.36 -23.884 187.096 -24.626Q188.83200000000002 -25.368000000000002 190.73600000000002 -25.368000000000002Q191.38000000000002 -25.368000000000002 191.96800000000002 -25.312Q192.556 -25.256 193.144 -25.158Q193.73200000000003 -25.060000000000002 194.348 -24.892L190.568 -12.404V-12.544Q192.108 -15.512 193.71800000000002 -17.892000000000003Q195.328 -20.272000000000002 197.008 -21.924Q198.68800000000002 -23.576 200.452 -24.458Q202.216 -25.34 204.036 -25.34Q206.64000000000001 -25.34 207.704 -24.192Q208.76800000000003 -23.044 208.76800000000003 -21.252Q208.76800000000003 -20.3 208.47400000000002 -19.054000000000002Q208.18 -17.808 207.56400000000002 -16.240000000000002L202.02 -2.072L201.60000000000002 -3.528Q202.72000000000003 -3.5 203.93800000000002 -3.892Q205.156 -4.284 206.5 -5.068Q207.84400000000002 -5.852 209.216 -7.0L210.22400000000002 -5.852Q208.012 -3.444 206.094 -2.016Q204.17600000000002 -0.588 202.524 0.014000000000000012Q200.872 0.616 199.36 0.616Q197.372 0.616 196.82600000000002 -0.055999999999999994Q196.28000000000003 -0.728 196.98000000000002 -2.464L202.66400000000002 -16.94Q203.0 -17.836000000000002 203.18200000000002 -18.466Q203.364 -19.096 203.364 -19.6Q203.364 -20.3 202.90200000000002 -20.72Q202.44000000000003 -21.14 201.348 -21.14Q199.976 -21.14 198.366 -20.048000000000002Q196.75600000000003 -18.956 195.132 -16.968Q193.508 -14.98 192.08 -12.25Q190.65200000000002 -9.52 189.644 -6.272L187.71200000000002 0.0H182.532L188.91600000000003 -21.168Q188.83200000000002 -21.168 188.73400000000004 -21.168Q188.63600000000002 -21.168 188.524 -21.168Q187.376 -21.168 186.368 -20.79Q185.36 -20.412 184.394 -19.432000000000002Q183.42800000000003 -18.452 182.364 -16.604Z M232.96 -20.328Q232.568 -21.336000000000002 231.686 -21.966Q230.804 -22.596 229.488 -22.596Q227.52800000000002 -22.596 225.75 -21.364Q223.972 -20.132 222.488 -18.158Q221.00400000000002 -16.184 219.89800000000002 -13.916Q218.792 -11.648 218.176 -9.533999999999999Q217.56 -7.42 217.56 -5.936Q217.56 -4.676 218.21800000000002 -4.0600000000000005Q218.876 -3.444 219.996 -3.444Q220.864 -3.444 222.04000000000002 -4.045999999999999Q223.216 -4.648 224.50400000000002 -5.74Q225.792 -6.832 227.05200000000002 -8.33Q228.312 -9.828 229.348 -11.648Q230.38400000000001 -13.468 231.02800000000002 -15.484L237.104 -34.86Q236.62800000000001 -35.364 236.04000000000002 -35.812Q235.452 -36.26 234.78 -36.652Q234.108 -37.044000000000004 233.324 -37.38L233.66 -38.472L243.04000000000002 -40.096000000000004H243.88L231.784 -2.016L230.972 -3.528Q232.06400000000002 -3.416 233.35200000000003 -3.7800000000000002Q234.64000000000001 -4.144 236.04000000000002 -4.9559999999999995Q237.44 -5.768 238.868 -7.0280000000000005L239.82 -5.88Q236.544 -2.2960000000000003 234.024 -0.8400000000000001Q231.50400000000002 0.616 229.404 0.616Q227.808 0.616 227.164 0.014000000000000012Q226.52 -0.588 226.94 -1.764L230.07600000000002 -11.06H230.55200000000002Q228.256 -7.5600000000000005 226.422 -5.292Q224.588 -3.024 223.09 -1.75Q221.592 -0.47600000000000003 220.276 0.04200000000000001Q218.96 0.56 217.70000000000002 0.56Q216.048 0.56 214.774 -0.07Q213.5 -0.7000000000000001 212.786 -2.016Q212.072 -3.332 212.072 -5.376Q212.072 -7.672000000000001 212.926 -10.36Q213.78 -13.048 215.32 -15.68Q216.86 -18.312 218.93200000000002 -20.482Q221.00400000000002 -22.652 223.44 -23.968Q225.876 -25.284 228.536 -25.284Q230.496 -25.284 231.784 -24.472Q233.072 -23.66 233.996 -22.008Z" fill="#17342C"/></svg>